<mxfile host="app.diagrams.net" modified="2023-12-25T01:25:52.160Z" agent="Mozilla/5.0 (Macintosh; Intel Mac OS X 10_14_6) AppleWebKit/537.36 (KHTML, like Gecko) Chrome/92.0.4515.107 Safari/537.36 Edg/92.0.902.62" version="21.1.8" etag="Dxk4dLhmDsNlGoMeU6K0" type="github">
  <diagram name="第 1 页" id="ddkF4SIwrhnpbR-WNJbl">
    <mxGraphModel>
      <root>
        <mxCell id="0" />
        <mxCell id="1" parent="0" />
      </root>
    </mxGraphModel>
  </diagram>
</mxfile>
